<svg fill="none" viewBox="-11 -10.13 21 18.897" width="21" height="18.897" xmlns="http://www.w3.org/2000/svg"><circle r="2" fill="#087ea4" cx="-.5" cy="-.681"/><g stroke="#087ea4" transform="translate(-.5 -.681)"><ellipse rx="10" ry="4.5"/><ellipse rx="10" ry="4.5" transform="rotate(60)"/><ellipse rx="10" ry="4.5" transform="rotate(120)"/><g style="fill:none"><path d="M35.876-5.361c-.513-.166-.777-.11-1.315-.17-.83-.094-1.162-.43-1.302-1.291-.079-.481.014-1.186-.186-1.622-.384-.832-1.282-1.205-2.183-.992-.762.18-1.395.965-1.43 1.77-.04.92.468 1.706 1.34 1.977.415.129.855.193 1.288.226.794.06.855.515 1.07.89.135.236.267.47.267 1.174s-.133.937-.267 1.173c-.215.374-.48.619-1.274.68a5.838 5.838 0 0 0-1.288.226c-.872.272-1.38 1.056-1.34 1.976.035.806.668 1.59 1.43 1.77.901.214 1.8-.16 2.183-.991.201-.436.311-.93.39-1.412.141-.862.472-1.197 1.302-1.29.538-.06 1.094 0 1.597-.295.533-.401 1.008-1.003 1.008-1.837 0-.835-.512-1.71-1.29-1.962z" fill="#f44250" stroke-width=".25022"/><path d="M27.352-1.444c-1.048 0-1.902-.883-1.902-1.965 0-1.083.854-1.965 1.902-1.965 1.047 0 1.901.882 1.901 1.965 0 1.081-.855 1.965-1.901 1.965zM23.849 2.55c-1.046-.003-1.897-.89-1.895-1.973.003-1.081.86-1.961 1.908-1.958 1.047.003 1.898.889 1.895 1.972-.002 1.08-.86 1.96-1.908 1.958zM37.978 2.55c-1.05.005-1.91-.871-1.916-1.951-.006-1.084.843-1.974 1.887-1.98 1.05-.006 1.91.87 1.916 1.95.006 1.083-.842 1.974-1.887 1.98zM16.989 9.447c-.133-.144-.152-.319-.21-.907-.044-.456-.285-.688-.697-.769.488-.063.85-.438.85-1.013 0-.77-.514-1.25-1.548-1.25h-2.018v3.939h1.06V8.14h.717c.361 0 .558.1.59.55.032.407.082.65.165.757zM14.426 7.32v-.963h.768c.456 0 .685.169.685.487 0 .363-.229.476-.685.476zM19.341 8.453c-.095.218-.272.312-.551.312-.311 0-.565-.162-.59-.506h1.985v-.282c0-.756-.5-1.394-1.446-1.394-.882 0-1.542.631-1.542 1.513 0 .888.647 1.426 1.554 1.426.75 0 1.27-.357 1.415-.994zm-1.129-.682c.038-.263.184-.463.514-.463.305 0 .47.213.482.463zM22.239 8.284c0 .362-.235.575-.527.575-.171 0-.285-.094-.285-.238 0-.18.146-.256.393-.306l.419-.075zm1.008-.607c0-.775-.551-1.094-1.3-1.094-.85 0-1.313.425-1.402 1.038l.952.062c.044-.206.158-.35.386-.35.248 0 .356.138.356.37v.043l-.793.131c-.616.107-1.009.338-1.009.876 0 .475.362.756.914.756.45 0 .774-.168.938-.494.096.32.368.494.717.494.292 0 .495-.08.641-.18V8.79a.592.592 0 0 1-.228.044c-.108 0-.172-.062-.172-.206zM23.764 8.052c0 .888.654 1.47 1.548 1.47.85 0 1.326-.538 1.396-1.213l-.844-.063c-.07.344-.241.513-.54.513-.31 0-.526-.206-.526-.707 0-.5.216-.706.527-.706.298 0 .47.162.54.506l.843-.056c-.07-.67-.546-1.213-1.396-1.213-.894 0-1.548.588-1.548 1.47zM27.202 8.671c0 .657.45.85.927.85.387 0 .634-.093.85-.25v-.656c-.172.069-.311.094-.438.094-.21 0-.324-.094-.324-.331v-1.02h.736v-.7h-.736v-.77h-.647l-.095.363c-.07.257-.158.407-.444.45l-.21.032v.625h.381zM34.162 9.447c-.133-.144-.152-.319-.21-.907-.043-.456-.285-.688-.697-.769.489-.063.85-.438.85-1.013 0-.77-.514-1.25-1.548-1.25H30.54v3.939h1.06V8.14h.716c.362 0 .558.1.59.55.032.407.083.65.165.757zM31.6 7.32v-.963h.768c.457 0 .685.169.685.487 0 .363-.228.476-.685.476zM35.405 8.052c0-.419.152-.706.514-.706.355 0 .513.287.513.706 0 .42-.158.707-.513.707-.362 0-.514-.288-.514-.707zm2.061 0c0-.863-.628-1.47-1.547-1.47-.927 0-1.548.607-1.548 1.47 0 .87.621 1.47 1.548 1.47.92 0 1.547-.6 1.547-1.47zM39.74 8.027c0 .426-.127.7-.45.7-.312 0-.42-.206-.42-.58v-1.49h-1.027v1.758c0 .582.235 1.107 1.008 1.107.426 0 .736-.181.889-.494v.419h1.027v-2.79H39.74zM41.427 8.671c0 .657.45.85.926.85.387 0 .634-.093.85-.25v-.656a1.154 1.154 0 0 1-.438.094c-.209 0-.323-.094-.323-.331v-1.02h.736v-.7h-.736v-.77h-.647l-.095.363c-.07.257-.159.407-.445.45l-.209.032v.625h.38zM45.591 8.453c-.095.218-.273.312-.552.312-.31 0-.564-.162-.59-.506h1.986v-.282c0-.756-.501-1.394-1.447-1.394-.882 0-1.541.631-1.541 1.513 0 .888.647 1.426 1.554 1.426.749 0 1.269-.357 1.415-.994zm-1.13-.682c.039-.263.185-.463.515-.463.304 0 .47.213.482.463zM49.047 6.69c-.07-.057-.222-.107-.394-.107a.821.821 0 0 0-.774.569v-.494h-1.027v2.789h1.027V8.17c0-.469.235-.644.616-.644.196 0 .349.038.488.119z" fill="#121212" stroke-width=".25022"/></g></g></svg>