<svg width="35.934" height="19.266" fill="none" viewBox="-11 -10.13 35.934 19.266" xmlns="http://www.w3.org/2000/svg"><circle cx="-24.241" cy="-.511" r="2" fill="#087ea4"/><g transform="translate(-24.241 -.51)" stroke="#087ea4"><ellipse rx="10" ry="4.5"/><ellipse transform="rotate(60)" rx="10" ry="4.5"/><ellipse transform="rotate(120)" rx="10" ry="4.5"/><path d="M35.875-5.361c-.512-.166-.777-.11-1.314-.17-.83-.094-1.162-.43-1.302-1.291-.079-.481.014-1.186-.187-1.622-.383-.832-1.281-1.205-2.183-.992-.761.18-1.395.965-1.43 1.77-.04.92.468 1.706 1.34 1.977.415.129.856.194 1.289.226.794.06.855.515 1.07.89.135.236.266.47.266 1.174s-.132.937-.266 1.173c-.215.374-.48.62-1.274.68a5.838 5.838 0 0 0-1.288.226c-.873.272-1.38 1.056-1.34 1.976.034.806.668 1.59 1.43 1.77.901.215 1.799-.16 2.182-.99.202-.437.312-.931.39-1.412.142-.862.473-1.197 1.303-1.29.537-.061 1.094 0 1.597-.296.532-.401 1.008-1.003 1.008-1.837s-.513-1.71-1.29-1.962z" fill="#f44250" stroke-width=".25022"/><g fill="#121212"><path d="M27.351-1.444c-1.047 0-1.901-.883-1.901-1.965s.854-1.965 1.901-1.965 1.902.883 1.902 1.965c0 1.081-.855 1.965-1.902 1.965zM23.848 2.55c-1.045-.003-1.897-.89-1.894-1.973.002-1.081.86-1.961 1.908-1.958 1.046.003 1.898.889 1.895 1.972-.003 1.08-.86 1.96-1.909 1.958zM37.978 2.55c-1.05.005-1.91-.871-1.916-1.951-.006-1.084.842-1.974 1.887-1.98 1.05-.006 1.91.87 1.916 1.95.006 1.084-.843 1.974-1.887 1.98zM16.988 9.447c-.133-.144-.152-.319-.209-.907-.044-.456-.285-.688-.698-.769.489-.062.85-.438.85-1.013 0-.769-.514-1.25-1.548-1.25h-2.017v3.939h1.06V8.14h.716c.362 0 .559.1.59.55.032.407.083.65.165.757zm-2.563-2.126v-.963h.768c.457 0 .685.169.685.488 0 .362-.228.475-.685.475zM19.341 8.453c-.095.219-.273.312-.552.312-.31 0-.565-.162-.59-.506h1.986v-.282c0-.756-.501-1.394-1.447-1.394-.882 0-1.541.632-1.541 1.513 0 .888.647 1.426 1.554 1.426.749 0 1.269-.356 1.415-.994zm-1.13-.682c.039-.263.185-.463.515-.463.304 0 .47.213.482.463zM22.238 8.284c0 .363-.234.575-.526.575-.172 0-.286-.093-.286-.237 0-.182.146-.257.394-.307l.418-.075zm1.009-.607c0-.775-.552-1.094-1.3-1.094-.85 0-1.314.425-1.403 1.038l.952.063c.044-.207.159-.35.387-.35.247 0 .355.137.355.368v.044l-.793.132c-.615.106-1.008.337-1.008.875 0 .475.361.757.913.757.45 0 .774-.17.939-.494.095.319.368.494.717.494.292 0 .495-.082.64-.182v-.537a.592.592 0 0 1-.228.043c-.108 0-.171-.062-.171-.206zM23.764 8.053c0 .888.653 1.47 1.548 1.47.85 0 1.326-.539 1.396-1.214l-.844-.063c-.07.344-.241.513-.54.513-.31 0-.526-.206-.526-.706s.216-.707.527-.707c.298 0 .469.163.539.506l.844-.056c-.07-.669-.546-1.213-1.396-1.213-.895 0-1.548.588-1.548 1.47zM27.202 8.672c0 .656.45.85.926.85.387 0 .635-.094.85-.25v-.657c-.17.07-.31.094-.437.094-.21 0-.324-.094-.324-.331v-1.02h.736v-.7h-.736v-.77h-.647l-.095.364c-.07.256-.159.406-.444.45l-.21.031v.625h.381zM34.162 9.447c-.133-.144-.152-.319-.21-.907-.044-.456-.285-.688-.697-.769.488-.062.85-.438.85-1.013 0-.769-.514-1.25-1.548-1.25H30.54v3.939h1.059V8.14h.717c.362 0 .558.1.59.55.032.407.082.65.165.757zm-2.563-2.126v-.963h.768c.456 0 .685.169.685.488 0 .362-.229.475-.685.475zM35.404 8.053c0-.42.153-.707.514-.707.356 0 .514.288.514.707s-.158.706-.514.706c-.361 0-.514-.287-.514-.706zm2.062 0c0-.863-.628-1.47-1.548-1.47-.926 0-1.548.607-1.548 1.47 0 .869.622 1.47 1.548 1.47.92 0 1.548-.601 1.548-1.47zM39.74 8.028c0 .425-.128.7-.451.7-.311 0-.42-.206-.42-.582V6.658h-1.027v1.757c0 .582.235 1.107 1.009 1.107.425 0 .736-.181.888-.494v.42h1.028v-2.79h-1.028zM41.426 8.672c0 .656.45.85.926.85.387 0 .634-.094.85-.25v-.657a1.154 1.154 0 0 1-.438.094c-.21 0-.323-.094-.323-.331v-1.02h.735v-.7h-.735v-.77h-.648l-.095.364c-.07.256-.158.406-.444.45l-.21.031v.625h.382zM45.592 8.453c-.095.219-.273.312-.552.312-.31 0-.565-.162-.59-.506h1.986v-.282c0-.756-.502-1.394-1.447-1.394-.882 0-1.542.632-1.542 1.513 0 .888.648 1.426 1.555 1.426.748 0 1.269-.356 1.415-.994zm-1.13-.682c.039-.263.185-.463.515-.463.304 0 .469.213.481.463zM49.047 6.69c-.07-.057-.222-.107-.393-.107a.821.821 0 0 0-.774.57v-.495h-1.028v2.79h1.028V8.17c0-.469.235-.644.615-.644.197 0 .35.038.49.12z" stroke-width=".25022"/></g></g></svg>