<svg fill="none" viewBox="-11 -10.13 25.428 19.081" width="25.428" height="19.081" xmlns="http://www.w3.org/2000/svg"><circle r="2" fill="#087ea4" cx="-65.646" cy="-.538"/><g stroke="#087ea4" transform="translate(-65.646 -.538)"><ellipse rx="10" ry="4.5"/><ellipse rx="10" ry="4.5" transform="rotate(60)"/><ellipse rx="10" ry="4.5" transform="rotate(120)"/><g style="fill:none"><path d="M37.876-5.361c-.513-.166-.777-.11-1.315-.17-.83-.094-1.162-.43-1.302-1.291-.079-.481.014-1.186-.186-1.622-.384-.832-1.282-1.205-2.183-.992-.762.18-1.395.965-1.43 1.77-.04.92.468 1.706 1.34 1.977.415.129.855.193 1.288.226.794.06.855.515 1.07.89.135.236.267.47.267 1.174s-.133.937-.267 1.173c-.215.374-.48.619-1.274.68a5.838 5.838 0 0 0-1.288.226c-.872.272-1.38 1.056-1.34 1.976.035.806.668 1.59 1.43 1.77.901.214 1.8-.16 2.183-.991.201-.436.311-.93.39-1.412.141-.862.472-1.197 1.302-1.29.538-.06 1.094 0 1.597-.295.533-.401 1.008-1.003 1.008-1.837 0-.835-.512-1.71-1.29-1.962z" fill="#f44250" stroke-width=".25022"/><path d="M29.352-1.444c-1.048 0-1.902-.883-1.902-1.965 0-1.083.854-1.965 1.902-1.965 1.047 0 1.901.882 1.901 1.965 0 1.081-.855 1.965-1.901 1.965zM25.849 2.55c-1.046-.003-1.897-.89-1.895-1.973.003-1.081.86-1.961 1.908-1.958 1.047.003 1.898.889 1.895 1.972-.002 1.08-.86 1.96-1.908 1.958zM39.978 2.55c-1.05.005-1.91-.871-1.916-1.951-.006-1.084.843-1.974 1.887-1.98 1.05-.006 1.91.87 1.916 1.95.006 1.083-.842 1.974-1.887 1.98zM18.989 9.447c-.133-.144-.152-.319-.21-.907-.044-.456-.285-.688-.697-.769.488-.063.85-.438.85-1.013 0-.77-.514-1.25-1.548-1.25h-2.018v3.939h1.06V8.14h.717c.361 0 .558.1.59.55.032.407.082.65.165.757zM16.426 7.32v-.963h.768c.456 0 .685.169.685.487 0 .363-.229.476-.685.476zM21.341 8.453c-.095.218-.272.312-.551.312-.311 0-.565-.162-.59-.506h1.985v-.282c0-.756-.5-1.394-1.446-1.394-.882 0-1.542.631-1.542 1.513 0 .888.647 1.426 1.554 1.426.75 0 1.27-.357 1.415-.994zm-1.129-.682c.038-.263.184-.463.514-.463.305 0 .47.213.482.463zM24.239 8.284c0 .362-.235.575-.527.575-.171 0-.285-.094-.285-.238 0-.18.146-.256.393-.306l.419-.075zm1.008-.607c0-.775-.551-1.094-1.3-1.094-.85 0-1.313.425-1.402 1.038l.952.062c.044-.206.158-.35.386-.35.248 0 .356.138.356.37v.043l-.793.131c-.616.107-1.009.338-1.009.876 0 .475.362.756.914.756.45 0 .774-.168.938-.494.096.32.368.494.717.494.292 0 .495-.08.641-.18V8.79a.592.592 0 0 1-.228.044c-.108 0-.172-.062-.172-.206zM25.764 8.052c0 .888.654 1.47 1.548 1.47.85 0 1.326-.538 1.396-1.213l-.844-.063c-.07.344-.241.513-.54.513-.31 0-.526-.206-.526-.707 0-.5.216-.706.527-.706.298 0 .47.162.54.506l.843-.056c-.07-.67-.546-1.213-1.396-1.213-.894 0-1.548.588-1.548 1.47zM29.202 8.671c0 .657.45.85.927.85.387 0 .634-.093.85-.25v-.656c-.172.069-.311.094-.438.094-.21 0-.324-.094-.324-.331v-1.02h.736v-.7h-.736v-.77h-.647l-.095.363c-.07.257-.158.407-.444.45l-.21.032v.625h.381zM36.162 9.447c-.133-.144-.152-.319-.21-.907-.043-.456-.285-.688-.697-.769.489-.063.85-.438.85-1.013 0-.77-.514-1.25-1.548-1.25H32.54v3.939h1.06V8.14h.716c.362 0 .558.1.59.55.032.407.083.65.165.757zM33.6 7.32v-.963h.768c.457 0 .685.169.685.487 0 .363-.228.476-.685.476zM37.405 8.052c0-.419.152-.706.514-.706.355 0 .513.287.513.706 0 .42-.158.707-.513.707-.362 0-.514-.288-.514-.707zm2.061 0c0-.863-.628-1.47-1.547-1.47-.927 0-1.548.607-1.548 1.47 0 .87.621 1.47 1.548 1.47.92 0 1.547-.6 1.547-1.47zM41.74 8.027c0 .426-.127.7-.45.7-.312 0-.42-.206-.42-.58v-1.49h-1.027v1.758c0 .582.235 1.107 1.008 1.107.426 0 .736-.181.889-.494v.419h1.027v-2.79H41.74zM43.427 8.671c0 .657.45.85.926.85.387 0 .634-.093.85-.25v-.656a1.154 1.154 0 0 1-.438.094c-.209 0-.323-.094-.323-.331v-1.02h.736v-.7h-.736v-.77h-.647l-.095.363c-.07.257-.159.407-.445.45l-.209.032v.625h.38zM47.591 8.453c-.095.218-.273.312-.552.312-.31 0-.564-.162-.59-.506h1.986v-.282c0-.756-.501-1.394-1.447-1.394-.882 0-1.541.631-1.541 1.513 0 .888.647 1.426 1.554 1.426.749 0 1.269-.357 1.415-.994zm-1.13-.682c.039-.263.185-.463.515-.463.304 0 .47.213.482.463zM51.047 6.69c-.07-.057-.222-.107-.394-.107a.821.821 0 0 0-.774.569v-.494h-1.027v2.789h1.027V8.17c0-.469.235-.644.616-.644.196 0 .349.038.488.119z" fill="#121212" stroke-width=".25022"/></g><path fill="#cd6799" d="M76.525 1.374a5.255 5.255 0 0 0-2.3.533c-.236-.468-.473-.885-.514-1.191-.047-.357-.102-.575-.047-1.002.056-.426.306-1.034.302-1.08-.005-.046-.056-.264-.566-.269-.51-.005-.95.097-1.001.232-.051.134-.149.44-.214.756-.088.463-1.02 2.118-1.553 2.985-.171-.338-.32-.635-.352-.871-.047-.357-.102-.575-.047-1.002.056-.426.306-1.034.302-1.08-.005-.046-.056-.264-.566-.269-.51-.005-.95.097-1.001.232-.051.134-.107.45-.213.756-.107.306-1.345 3.069-1.67 3.783-.166.366-.31.658-.412.857 0 0-.005.014-.019.037-.088.172-.139.265-.139.265v.004c-.07.125-.143.241-.18.241-.028 0-.08-.333.009-.788.185-.96.626-2.452.621-2.503 0-.028.084-.288-.287-.422-.362-.135-.492.088-.524.088-.033 0-.056.079-.056.079s.403-1.679-.77-1.679c-.732 0-1.743.803-2.243 1.526-.316.171-.988.538-1.706.932-.274.153-.557.306-.821.45-.019-.02-.037-.042-.056-.061-1.418-1.516-4.042-2.587-3.931-4.622.042-.742.297-2.689 5.04-5.053 3.903-1.924 7.01-1.391 7.547-.21.77 1.688-1.664 4.822-5.698 5.277-1.539.171-2.346-.422-2.55-.645-.213-.231-.245-.245-.324-.199-.13.07-.047.278 0 .399.12.315.616.871 1.456 1.145.741.24 2.545.375 4.728-.468 2.444-.946 4.354-3.575 3.793-5.777-.561-2.235-4.27-2.972-7.78-1.725-2.086.742-4.348 1.91-5.976 3.431-1.933 1.808-2.239 3.38-2.114 4.038.45 2.337 3.672 3.857 4.961 4.984-.065.037-.125.07-.176.097-.645.32-3.102 1.604-3.714 2.963-.695 1.539.112 2.642.645 2.79 1.655.46 3.356-.366 4.27-1.729.913-1.363.802-3.134.38-3.945-.005-.01-.01-.018-.019-.028.167-.097.339-.2.506-.296.329-.195.653-.376.931-.524-.157.43-.273.945-.329 1.687-.07.872.288 2.003.756 2.448.209.195.454.2.612.2.547 0 .793-.455 1.066-.993.334-.658.635-1.423.635-1.423s-.375 2.068.645 2.068c.37 0 .746-.482.913-.728v.004s.01-.013.028-.046l.06-.097v-.01c.148-.26.482-.848.978-1.826.64-1.261 1.257-2.837 1.257-2.837s.055.384.245 1.024c.112.376.343.788.529 1.187a7.938 7.938 0 0 1-.241.325l.004.004c-.12.158-.25.33-.394.496-.505.603-1.108 1.294-1.191 1.493-.097.236-.074.408.111.547.135.102.376.116.621.102.455-.032.775-.144.932-.213.246-.088.533-.223.802-.422.496-.366.798-.89.77-1.581-.014-.38-.14-.76-.292-1.117.046-.065.088-.13.134-.195C71.912 1.768 72.52.512 72.52.512s.056.384.246 1.024c.093.325.283.677.45 1.02-.738.598-1.192 1.294-1.354 1.748-.292.844-.065 1.224.366 1.312.195.042.473-.051.677-.14.26-.083.565-.226.858-.44.496-.366.973-.876.945-1.567a2.962 2.962 0 0 0-.213-.927c.626-.26 1.433-.403 2.462-.283 2.207.26 2.642 1.637 2.559 2.216-.084.58-.547.895-.7.992-.153.098-.204.13-.19.2.018.102.092.097.222.079.181-.033 1.16-.469 1.201-1.535.07-1.363-1.229-2.851-3.523-2.837zM59.5 7.114c-.732.797-1.752 1.098-2.193.843-.473-.273-.287-1.451.612-2.295.547-.514 1.252-.992 1.72-1.284.107-.065.264-.158.454-.274l.051-.027.112-.07c.329 1.206.014 2.267-.756 3.106zm5.331-3.626c-.255.621-.788 2.211-1.112 2.123-.278-.074-.45-1.28-.056-2.47.2-.599.621-1.313.867-1.591.399-.445.84-.593.946-.413.134.237-.487 1.961-.645 2.35zm4.4 2.105c-.107.055-.209.092-.255.065-.032-.019.046-.093.046-.093s.552-.594.77-.862c.125-.158.274-.344.431-.552v.06c0 .71-.686 1.187-.992 1.382zm3.394-.775c-.08-.055-.065-.24.2-.82.101-.227.342-.607.755-.974.046.149.079.292.074.427-.005.895-.645 1.228-1.03 1.367z" stroke-width=".04636"/></g></svg>